:SAMPLES-PER-SECOND 30
:FULLY-SPECIFIED
:DEGREES
71
root  35.04835715 36.52747147 -14.70829821 10.82605553 5.313937187 3.332579374
lowerback  -8.656359673 1.813660026 2.303690195
upperback  -4.426859856 1.852620006 -3.653209925
thorax  0.4590789974 0.6729639769 -4.923689842
lowerneck  -15.45880032 -0.9861400127 0.3513439894
upperneck  12.32989979 -2.39331007 5.314280033
head  6.354990005 -0.7566560507 1.402009964
lclavicle  0 -4.497500157e-015 -2.743230041e-014
lhumerus  -43.21720123 25.72139931 70.51889801
lradius  -0.08116896451 -6.507048965e-006 27.17329979
lwrist  4.824992743e-007 -3.790274832e-007 -31.18980026
lhand  -4.417488415e-031 -36.93180084 -10.74450016
lfingers  90 7.125020027 -90
lthumb  94.84582697 -25.5779152 101.1094848
rclavicle  0 -4.497500157e-015 -2.743230041e-014
rhumerus  21.9958992 0.04726938158 -61.79759979
rradius  -5.16745672e-007 2.214343908e-008 85.57160187
rwrist  1.380293725e-006 2.528095422e-007 -172.845993
rhand  -1.766128616e-031 1.450719953 -8.131480217
rfingers  -90 -7.125020027 -90
rthumb  -85.99423847 -7.813600183 -62.74712562
rfemur  -13.5761776 13.35124683 13.9563961
rtibia  -1.481494188 1.573177338 21.77092171
rfoot  -1.211044073 -16.90496254 -41.78712845
rtoes  4.156651434 19.58061289 -102.2353599
lfemur  -11.50672245 -19.02872086 -18.26067924
ltibia  2.404099464 1.917017341 15.4293642
lfoot  0.5310149789 -29.23879051 31.88672829
ltoes  -8.570867318 -18.13875736 -115.8325251
72
root  35.04820996 36.52833954 -14.70781612 10.85858631 5.47030735 3.355549335
lowerback  -8.643279076 1.866359949 2.312389612
upperback  -4.436560154 1.922430038 -3.670480013
thorax  0.4497910142 0.707333982 -4.940489769
lowerneck  -15.43669987 -1.092589974 0.2660210133
upperneck  12.2894001 -2.520319939 5.347710133
head  6.34307003 -0.8204039335 1.413879991
lclavicle  0 -4.497500157e-015 -2.743230041e-014
lhumerus  -43.16759872 25.58460045 70.61720276
lradius  -0.0817238912 -6.507048965e-006 27.07019997
lwrist  4.824992743e-007 -3.790274832e-007 -31.08639908
lhand  -4.416740957e-031 -36.91889954 -10.75030041
lfingers  90 7.125020027 -90
lthumb  94.84098415 -25.58407102 101.0961775
rclavicle  0 -4.497500157e-015 -2.743230041e-014
rhumerus  23.33609962 -0.1357695311 -61.28070068
rradius  -5.16745672e-007 2.214343908e-008 85.04550171
rwrist  1.380293725e-006 2.528095422e-007 -172.9400024
rhand  -1.766510511e-031 1.877159953 -8.203920364
rfingers  -90 -7.125020027 -90
rthumb  -85.94253579 -7.777292127 -62.3369826
rfemur  -13.60991192 13.30325317 13.96965504
rtibia  -1.516525745 1.606578827 21.82058525
rfoot  -1.228010058 -16.8053894 -41.83645248
rtoes  4.143133575 19.58337005 -102.1950268
lfemur  -11.55429268 -19.10153198 -18.26256561
ltibia  2.423240662 1.923701882 15.43774891
lfoot  0.5343430042 -29.24578476 31.81320953
ltoes  -8.576470913 -18.13617831 -115.8505258
73
root  35.04699347 36.52976329 -14.70758784 10.91036797 5.640626907 3.38539052
lowerback  -8.631621361 1.896639824 2.347460508
upperback  -4.42054987 1.96310997 -3.702850103
thorax  0.4663009942 0.7284439802 -4.990670204
lowerneck  -15.44299984 -1.175320029 0.2335110009
upperneck  12.22920036 -2.625710011 5.374440193
head  6.328609943 -0.8718329668 1.417050004
lclavicle  0 -4.497500157e-015 -2.743230041e-014
lhumerus  -43.11230087 25.54730034 70.63130188
lradius  -0.08227663487 -6.507048965e-006 27.02519989
lwrist  4.824992743e-007 -3.790274832e-007 -31.04360008
lhand  -4.416926341e-031 -36.92210007 -10.73649979
lfingers  90 7.125020027 -90
lthumb  94.83951067 -25.57037017 101.0982739
rclavicle  0 -4.497500157e-015 -2.743230041e-014
rhumerus  24.76510048 -0.3041554689 -60.72449875
rradius  -5.16745672e-007 2.214343908e-008 84.50469971
rwrist  1.380293725e-006 2.528095422e-007 -172.8800049
rhand  -1.767284139e-031 2.529230118 -8.186260223
rfingers  -90 -7.125020027 -90
rthumb  -85.80148454 -7.83644224 -61.70170521
rfemur  -13.66806889 13.24385357 13.97925568
rtibia  -1.560161233 1.62271452 21.8837738
rfoot  -1.27088356 -16.73748589 -41.92911911
rtoes  4.169918366 19.57789773 -102.2749496
lfemur  -11.65431309 -19.18714523 -18.25266266
ltibia  2.426810265 1.923731685 15.48422623
lfoot  0.5180803537 -29.2519455 31.67653656
ltoes  -8.604960611 -18.1230334 -115.9420832
74
root  35.04795465 36.53040908 -14.70970995 10.95790386 5.796602249 3.404180527
lowerback  -8.628399849 1.926100016 2.367189884
upperback  -4.416790009 2.001149893 -3.749219894
thorax  0.4745270014 0.7468370199 -5.04708004
lowerneck  -15.42160034 -1.255929947 0.2229209989
upperneck  12.18589973 -2.736789942 5.411379814
head  6.315070152 -0.9249479175 1.419399977
lclavicle  0 -4.497500157e-015 -2.743230041e-014
lhumerus  -43.14899826 25.62829971 70.47599792
lradius  -0.08282721788 -6.507048965e-006 27.02590179
lwrist  4.824992743e-007 -3.790274832e-007 -31.27420044
lhand  -4.415889985e-031 -36.90420151 -10.68029976
lfingers  90 7.125020027 -90
lthumb  94.81915335 -25.51588605 101.0739958
rclavicle  0 -4.497500157e-015 -2.743230041e-014
rhumerus  26.09500122 -0.4129656553 -60.04140091
rradius  -5.16745672e-007 2.214343908e-008 83.9776001
rwrist  1.380293725e-006 2.528095422e-007 -173.0121918
rhand  -1.76701974e-031 2.327069998 -7.994709969
rfingers  -90 -7.125020027 -90
rthumb  -85.75183725 -7.991852792 -61.88580688
rfemur  -13.72172546 13.19005108 13.98688698
rtibia  -1.592471838 1.634445906 21.93625641
rfoot  -1.319480896 -16.69544792 -42.03379822
rtoes  4.163994598 19.57911119 -102.2572719
lfemur  -11.77711296 -19.27282524 -18.22019577
ltibia  2.405395269 1.92427063 15.57013702
lfoot  0.5084912181 -29.27917671 31.56406403
ltoes  -8.567530048 -18.14029234 -115.8218057
75
root  35.04683127 36.52992249 -14.70669273 11.01075077 5.944280148 3.398848772
lowerback  -8.539410591 1.959980011 2.410230398
upperback  -4.438099861 2.04279995 -3.805520058
thorax  0.4110899866 0.764391005 -5.129039764
lowerneck  -15.37450027 -1.318950057 0.2214960009
upperneck  12.13370037 -2.820780039 5.425909996
head  6.293089867 -0.9666840434 1.415920019
lclavicle  0 -4.497500157e-015 -2.743230041e-014
lhumerus  -43.18560028 25.6303997 70.39369965
lradius  -0.08337563276 -6.507048965e-006 27.02080154
lwrist  4.824992743e-007 -3.790274832e-007 -31.23390007
lhand  -4.415334415e-031 -36.89459991 -10.69569969
lfingers  90 7.125020027 -90
lthumb  94.81795781 -25.53138087 101.0651898
rclavicle  0 -4.497500157e-015 -2.743230041e-014
rhumerus  27.39229965 -0.5674081445 -59.5135994
rradius  -5.16745672e-007 2.214343908e-008 83.37020111
rwrist  1.380293725e-006 2.528095422e-007 -172.964035
rhand  -1.766973208e-031 2.28963995 -7.897699833
rfingers  -90 -7.125020027 -90
rthumb  -85.71348002 -8.074961342 -61.91569796
rfemur  -13.76323128 13.00321388 14.03566456
rtibia  -1.608205914 1.619073987 21.95161438
rfoot  -1.330237865 -16.7360878 -42.00511551
rtoes  4.139797998 19.58404893 -102.1850753
lfemur  -11.89094639 -19.39124489 -18.14081764
ltibia  2.394341469 1.948011875 15.6343689
lfoot  0.5408332348 -29.32486534 31.56878662
ltoes  -8.547081499 -18.14968136 -115.756144
76
root  35.04310368 36.52547401 -14.70311383 11.03636074 6.113010883 3.416209698
lowerback  -8.493650436 2.001569986 2.504829645
upperback  -4.459529877 2.089839935 -3.873500109
thorax  0.3741460145 0.7838519812 -5.251490116
lowerneck  -15.35569954 -1.414350033 0.2206850052
upperneck  12.10809994 -2.950299978 5.435679913
head  6.285620213 -1.02997005 1.406249881
lclavicle  0 -4.497500157e-015 -2.743230041e-014
lhumerus  -43.26309967 25.84840012 70.18109894
lradius  -0.08392187953 -6.507048965e-006 27.0189991
lwrist  4.824992743e-007 -3.790274832e-007 -31.48480034
lhand  -4.418073762e-031 -36.94189835 -10.58399963
lfingers  90 7.125020027 -90
lthumb  94.81628686 -25.42009557 101.1054926
rclavicle  0 -4.497500157e-015 -2.743230041e-014
rhumerus  28.65399933 -0.8351450562 -59.09270096
rradius  -5.16745672e-007 2.214343908e-008 82.71299744
rwrist  1.380293725e-006 2.528095422e-007 -172.9920044
rhand  -1.767278639e-031 2.525190115 -8.21088028
rfingers  -90 -7.125020027 -90
rthumb  -85.81407826 -7.814535013 -61.70727191
rfemur  -13.76913738 12.79550743 14.0713253
rtibia  -1.626938939 1.596837163 21.9828186
rfoot  -1.365210295 -16.79683304 -42.0079155
rtoes  4.13326857 19.5853762 -102.1655961
lfemur  -11.90364742 -19.48305893 -18.12679291
ltibia  2.44081068 1.988831401 15.59247494
lfoot  0.570612371 -29.37252808 31.55282593
ltoes  -8.534047592 -18.15565134 -115.7143083
